<?xml version="1.0" standalone="no"?>
<!DOCTYPE svg PUBLIC "-//W3C//DTD SVG 20010904//EN"
 "http://www.w3.org/TR/2001/REC-SVG-20010904/DTD/svg10.dtd">
<svg version="1.0" xmlns="http://www.w3.org/2000/svg"
 width="790.000000pt" height="790.000000pt" viewBox="0 0 790.000000 790.000000"
 preserveAspectRatio="xMidYMid meet">
<metadata>
Created by potrace 1.14, written by Peter Selinger 2001-2017
</metadata>
<g transform="translate(0.000000,790.000000) scale(0.100000,-0.100000)"
fill="#000000" stroke="none">
<path d="M3560 7879 c-38 -32 -127 -109 -181 -158 -27 -24 -49 -40 -49 -35 0
5 -5 1 -11 -8 -10 -18 -49 -25 -49 -10 0 5 -23 14 -51 21 -28 8 -63 20 -78 27
-14 8 -32 14 -39 14 -7 0 -20 4 -30 9 -9 5 -52 20 -96 35 -61 20 -77 23 -72
11 3 -8 -5 -26 -17 -39 -12 -13 -66 -76 -120 -140 -104 -123 -106 -124 -182
-106 -66 16 -216 40 -277 44 -47 4 -58 2 -58 -10 0 -27 -133 -257 -143 -247
-4 3 -7 -5 -7 -18 0 -13 -7 -32 -14 -41 -12 -16 -35 -18 -212 -18 -189 0 -234
-6 -221 -27 9 -14 -11 -79 -28 -96 -8 -8 -12 -17 -9 -19 2 -3 -8 -36 -22 -74
-14 -38 -30 -85 -36 -104 -5 -19 -14 -40 -19 -46 -5 -6 -51 -19 -102 -28 -50
-9 -131 -24 -179 -33 -48 -8 -94 -20 -102 -27 -13 -9 -53 -197 -72 -336 -5
-35 -20 -60 -36 -60 -5 0 -37 -11 -71 -24 -97 -37 -101 -39 -117 -41 -14 -3
-108 -39 -140 -55 -12 -6 -15 -41 -18 -208 l-2 -201 -43 -21 c-45 -22 -62 -32
-172 -97 -38 -22 -74 -42 -80 -43 -5 -1 -18 -9 -28 -18 -21 -19 -22 -93 -1
-162 8 -25 20 -90 28 -145 l13 -99 -56 -53 c-31 -30 -68 -60 -82 -68 -15 -8
-38 -28 -52 -45 -14 -16 -28 -30 -31 -30 -11 0 -76 -71 -76 -83 0 -7 9 -31 21
-52 11 -22 21 -61 22 -86 2 -33 8 -52 23 -65 11 -11 27 -44 34 -74 7 -30 18
-58 24 -62 8 -6 7 -11 -3 -17 -7 -5 -11 -13 -8 -18 4 -6 -5 -21 -19 -34 -46
-43 -204 -246 -204 -263 0 -8 9 -30 20 -48 11 -18 20 -40 20 -49 0 -9 11 -28
25 -43 13 -14 22 -33 19 -41 -4 -8 1 -17 10 -21 9 -3 16 -15 16 -26 0 -10 4
-17 9 -14 5 3 21 -18 35 -47 l26 -52 -23 -45 c-13 -25 -34 -63 -48 -85 -41
-67 -47 -78 -78 -140 -42 -88 -45 -102 -22 -108 11 -3 26 -20 34 -38 8 -19 29
-48 46 -66 21 -20 27 -33 19 -35 -7 -3 4 -13 25 -22 20 -10 37 -21 37 -25 0
-4 10 -18 23 -31 34 -37 44 -62 35 -90 -13 -40 -77 -222 -93 -260 -30 -78 -29
-85 27 -144 29 -31 59 -56 66 -56 17 0 82 -49 140 -107 l44 -43 -10 -48 c-6
-26 -14 -74 -17 -107 -4 -33 -10 -64 -15 -70 -4 -5 -10 -44 -13 -86 -7 -85 -6
-88 66 -124 20 -11 37 -23 37 -28 0 -4 4 -6 9 -3 5 3 14 -1 21 -9 7 -8 22 -15
34 -15 12 0 37 -16 56 -35 18 -19 46 -37 62 -40 15 -4 33 -15 38 -25 6 -11 10
-101 10 -205 0 -102 4 -194 10 -204 6 -13 17 -17 35 -14 24 5 50 -2 120 -32
53 -23 139 -54 168 -61 33 -8 45 -27 51 -85 3 -24 12 -71 20 -104 9 -33 16
-76 16 -96 0 -19 7 -56 16 -81 13 -39 20 -46 47 -51 18 -3 86 -15 152 -27 66
-12 136 -23 154 -25 40 -4 70 -37 71 -76 0 -14 5 -30 10 -35 6 -6 16 -32 24
-60 7 -27 23 -71 34 -99 12 -27 23 -62 26 -76 4 -17 14 -29 28 -33 13 -3 105
-6 205 -6 177 0 182 -1 197 -22 9 -12 16 -30 16 -39 0 -9 6 -19 14 -22 8 -3
20 -17 28 -31 7 -14 34 -63 60 -110 27 -47 48 -90 48 -95 0 -14 30 -22 64 -16
17 3 47 7 66 9 19 3 73 11 120 20 123 23 172 21 198 -7 12 -13 22 -29 22 -35
0 -7 11 -18 25 -24 14 -6 25 -17 25 -25 0 -7 4 -13 9 -13 6 0 27 -27 48 -60
21 -33 46 -62 56 -66 9 -3 15 -9 12 -13 -2 -5 8 -14 22 -20 21 -10 33 -9 57 2
40 19 69 31 136 55 136 48 184 62 189 55 3 -5 18 -14 33 -20 14 -6 73 -51 130
-100 118 -101 155 -127 163 -114 3 6 18 16 33 24 15 8 47 26 72 39 43 23 108
63 160 98 41 28 70 33 88 17 9 -8 49 -31 87 -52 103 -54 146 -81 156 -96 5 -8
9 -10 9 -6 0 5 10 1 22 -7 36 -25 60 -19 108 29 25 25 60 52 78 61 17 9 32 22
32 29 0 7 16 20 35 29 19 9 35 21 35 25 0 12 67 51 87 51 8 0 27 -7 41 -15 15
-8 50 -21 77 -29 66 -20 132 -44 172 -63 41 -19 81 -10 92 20 9 23 77 87 93
87 4 0 8 9 8 20 0 11 28 50 62 88 l63 68 50 -7 c27 -5 77 -13 110 -18 33 -6
78 -13 100 -15 22 -3 56 -10 75 -16 19 -5 40 -10 46 -10 14 0 54 64 126 200
10 19 22 34 26 32 4 -2 9 6 12 17 3 11 15 31 28 45 12 15 22 31 22 36 0 11 5
11 238 10 l162 -1 0 24 c0 12 4 27 9 33 10 9 54 131 73 199 6 22 17 44 25 48
7 4 13 24 13 42 0 26 4 35 18 36 36 3 59 6 110 18 29 6 68 11 87 11 19 0 36 4
39 8 3 5 23 9 46 10 58 3 108 26 114 54 3 13 15 84 26 158 31 203 31 203 65
210 17 4 39 11 50 17 25 14 140 53 155 53 9 0 83 30 120 49 12 7 16 44 20 209
l5 201 45 24 c25 13 61 34 80 46 19 11 47 26 63 32 15 6 27 14 27 18 0 9 51
34 57 28 2 -3 17 8 32 22 28 26 29 30 24 97 -3 38 -9 74 -13 79 -5 6 -11 38
-15 72 -3 34 -8 72 -11 85 -17 71 -18 70 52 141 36 37 80 75 96 83 16 8 32 22
35 30 4 10 13 14 29 10 17 -5 24 -1 29 16 4 13 16 33 27 44 19 21 19 22 -5 92
-14 38 -32 85 -40 103 -9 19 -19 50 -22 69 -4 19 -11 40 -15 45 -5 6 -8 12 -8
15 0 3 -4 18 -7 33 -5 17 -3 33 4 40 6 6 11 18 11 28 0 21 75 106 101 114 12
4 18 13 15 21 -3 7 0 16 6 20 7 5 8 2 3 -6 -5 -8 -3 -11 6 -8 8 3 13 13 13 22
-1 9 4 16 12 16 8 0 14 8 14 17 0 9 12 29 26 44 l26 27 -19 38 c-11 22 -38 71
-61 109 -23 39 -43 83 -44 98 -1 15 -7 27 -13 27 -17 0 -45 55 -45 87 0 37 13
55 35 51 12 -2 19 4 21 20 2 13 0 21 -5 18 -5 -4 2 18 17 46 14 29 26 57 26
61 1 4 6 11 11 15 6 4 19 25 30 47 11 22 26 46 33 53 17 19 15 35 -9 77 -12
19 -19 41 -16 49 8 20 -4 28 -20 14 -11 -9 -19 -6 -39 18 -14 16 -48 53 -75
82 -46 51 -54 67 -50 101 2 7 -2 10 -8 6 -6 -3 -11 0 -11 7 0 21 35 124 46
139 6 8 17 38 25 67 7 28 16 52 21 52 4 0 8 8 8 17 0 9 5 31 12 49 11 30 9 35
-20 69 -18 19 -32 33 -32 30 0 -9 -48 27 -103 77 -26 23 -68 59 -92 78 l-44
34 6 56 c3 30 9 63 14 72 5 9 9 36 9 60 0 24 5 49 11 55 7 7 13 45 14 85 3 78
-3 90 -55 116 -69 34 -173 93 -197 111 -14 12 -32 21 -39 21 -7 0 -20 7 -28
16 -14 13 -16 47 -16 219 l0 203 -27 5 c-72 13 -89 19 -99 32 -6 8 -20 15 -31
15 -29 0 -83 20 -83 31 0 5 -13 9 -28 9 -15 0 -32 4 -37 9 -6 5 -21 11 -34 13
-32 4 -40 33 -77 252 -5 28 -4 37 5 32 6 -4 11 -2 11 3 0 6 -4 11 -10 11 -5 0
-10 13 -10 29 0 17 -4 32 -9 35 -5 3 -7 15 -4 26 6 23 -3 27 -72 33 -55 5
-139 19 -257 44 -67 14 -78 20 -86 42 -6 14 -24 67 -42 116 -18 50 -39 104
-46 120 -7 17 -14 46 -16 65 l-3 35 -212 5 c-116 3 -213 7 -215 10 -2 3 -12
21 -21 40 -10 19 -31 60 -47 90 -16 30 -30 60 -30 67 0 6 -8 18 -18 25 -10 7
-29 33 -43 58 -22 41 -28 45 -67 48 -24 2 -74 -4 -110 -14 -37 -9 -74 -18 -82
-19 -8 -1 -42 -5 -75 -9 -33 -4 -67 -10 -76 -12 -21 -6 -174 170 -163 188 3 4
-2 8 -10 8 -9 0 -16 8 -16 19 0 11 -9 22 -19 26 -11 3 -23 15 -26 26 -8 24
-47 47 -53 30 -2 -6 -12 -11 -21 -11 -10 0 -21 -3 -25 -7 -4 -5 -11 -8 -14 -9
-21 -2 -70 -18 -92 -30 -14 -7 -56 -22 -95 -34 -38 -12 -78 -26 -88 -31 -24
-13 -55 5 -63 37 -4 16 -12 24 -23 22 -17 -3 -141 88 -141 103 0 5 -6 9 -13 9
-7 0 -26 14 -42 30 -43 45 -49 43 -215 -54 -25 -14 -53 -26 -62 -26 -10 0 -18
-5 -18 -11 0 -5 -15 -17 -32 -25 -18 -8 -40 -19 -49 -26 -17 -12 -65 11 -257
124 -91 53 -115 57 -152 27z"/>
</g>
</svg>
